<svg width="760" height="760" viewBox="0 0 760 760" fill="none" xmlns="http://www.w3.org/2000/svg">
<path d="M192.491 368L200 553.754L57.7845 600L0 455.442L192.491 368Z" fill="#C6AC6C"/>
<path d="M40 215.084L125.425 88L304 204.226L157.592 312L40 215.084Z" fill="#C6AC6C"/>
<path d="M360.677 0L512 12.7984L499.663 232L336 154.202L360.677 0Z" fill="#C6AC6C"/>
<path d="M560 225.173L699.474 176L760 316.426L571.188 408L560 225.173Z" fill="#C6AC6C"/>
<path d="M456 557.874L606.243 456L720 555.859L629.663 680L456 557.874Z" fill="#C6AC6C"/>
<path d="M258.5 536L432 605.29L414.467 760L256 756.416L258.5 536Z" fill="#C6AC6C"/>
</svg>
