<svg width="182" height="35" viewBox="0 0 182 35" fill="none" xmlns="http://www.w3.org/2000/svg">
<path d="M49.1378 9.90909H52.5511L56.1562 18.7045H56.3097L59.9148 9.90909H63.3281V23H60.6435V14.4794H60.5348L57.147 22.9361H55.3189L51.9311 14.4474H51.8224V23H49.1378V9.90909ZM68.3762 9.90909V23H65.6085V9.90909H68.3762ZM70.6534 23V9.90909H73.4212V20.718H79.0334V23H70.6534ZM80.8663 23V9.90909H83.6341V20.718H89.2463V23H80.8663ZM93.8469 9.90909V23H91.0792V9.90909H93.8469ZM108.154 16.4545C108.154 17.8821 107.883 19.0966 107.342 20.098C106.805 21.0994 106.072 21.8643 105.143 22.3928C104.219 22.9169 103.179 23.179 102.024 23.179C100.861 23.179 99.8166 22.9148 98.8919 22.3864C97.9672 21.858 97.2363 21.093 96.6994 20.0916C96.1625 19.0902 95.894 17.8778 95.894 16.4545C95.894 15.027 96.1625 13.8125 96.6994 12.8111C97.2363 11.8097 97.9672 11.0469 98.8919 10.5227C99.8166 9.99432 100.861 9.73011 102.024 9.73011C103.179 9.73011 104.219 9.99432 105.143 10.5227C106.072 11.0469 106.805 11.8097 107.342 12.8111C107.883 13.8125 108.154 15.027 108.154 16.4545ZM105.348 16.4545C105.348 15.5298 105.209 14.75 104.932 14.1151C104.66 13.4801 104.274 12.9986 103.775 12.6705C103.277 12.3423 102.693 12.1783 102.024 12.1783C101.355 12.1783 100.771 12.3423 100.273 12.6705C99.774 12.9986 99.3862 13.4801 99.1092 14.1151C98.8365 14.75 98.7001 15.5298 98.7001 16.4545C98.7001 17.3793 98.8365 18.1591 99.1092 18.794C99.3862 19.429 99.774 19.9105 100.273 20.2386C100.771 20.5668 101.355 20.7308 102.024 20.7308C102.693 20.7308 103.277 20.5668 103.775 20.2386C104.274 19.9105 104.66 19.429 104.932 18.794C105.209 18.1591 105.348 17.3793 105.348 16.4545ZM121.154 9.90909V23H118.763L113.068 14.7607H112.972V23H110.204V9.90909H112.633L118.284 18.142H118.399V9.90909H121.154ZM127.607 9.90909H131.02L134.625 18.7045H134.778L138.384 9.90909H141.797V23H139.112V14.4794H139.004L135.616 22.9361H133.788L130.4 14.4474H130.291V23H127.607V9.90909ZM146.845 9.90909V23H144.077V9.90909H146.845ZM149.122 23V9.90909H151.89V20.718H157.502V23H149.122ZM159.335 23V9.90909H168.156V12.1911H162.103V15.3104H167.702V17.5923H162.103V20.718H168.182V23H159.335ZM177.458 13.674C177.407 13.1584 177.188 12.7578 176.8 12.4723C176.412 12.1868 175.886 12.044 175.221 12.044C174.769 12.044 174.388 12.108 174.077 12.2358C173.766 12.3594 173.527 12.532 173.361 12.7536C173.199 12.9751 173.118 13.2266 173.118 13.5078C173.109 13.7422 173.158 13.9467 173.265 14.1214C173.376 14.2962 173.527 14.4474 173.719 14.5753C173.911 14.6989 174.132 14.8075 174.384 14.9013C174.635 14.9908 174.903 15.0675 175.189 15.1314L176.365 15.4126C176.936 15.5405 177.46 15.7109 177.938 15.924C178.415 16.1371 178.828 16.3991 179.178 16.7102C179.527 17.0213 179.798 17.3878 179.989 17.8097C180.185 18.2315 180.286 18.7152 180.29 19.2607C180.286 20.0618 180.081 20.7564 179.676 21.3445C179.276 21.9283 178.696 22.3821 177.938 22.706C177.183 23.0256 176.273 23.1854 175.208 23.1854C174.151 23.1854 173.231 23.0234 172.447 22.6996C171.667 22.3757 171.058 21.8963 170.619 21.2614C170.184 20.6222 169.956 19.8317 169.935 18.8899H172.613C172.643 19.3288 172.768 19.6953 172.99 19.9893C173.216 20.2791 173.516 20.4986 173.891 20.6477C174.271 20.7926 174.699 20.8651 175.176 20.8651C175.645 20.8651 176.052 20.7969 176.397 20.6605C176.746 20.5241 177.017 20.3345 177.209 20.0916C177.401 19.8487 177.496 19.5696 177.496 19.2543C177.496 18.9602 177.409 18.7131 177.234 18.5128C177.064 18.3125 176.813 18.142 176.48 18.0014C176.152 17.8608 175.749 17.733 175.272 17.6179L173.847 17.2599C172.743 16.9915 171.871 16.5717 171.232 16.0007C170.593 15.4297 170.276 14.6605 170.28 13.6932C170.276 12.9006 170.487 12.2081 170.913 11.6158C171.343 11.0234 171.933 10.5611 172.683 10.2287C173.433 9.89631 174.286 9.73011 175.24 9.73011C176.212 9.73011 177.06 9.89631 177.784 10.2287C178.513 10.5611 179.08 11.0234 179.484 11.6158C179.889 12.2081 180.098 12.8942 180.111 13.674H177.458Z" fill="#FFF"/>
<path d="M8.44256 16.8032L8.77191 24.9232L2.5344 26.9448L0 20.6256L8.44256 16.8032Z" fill="#C6AC6C"/>
<path d="M1.71924 10.285L5.42562 4.65845L13.1736 9.80431L6.8213 14.5759L1.71924 10.285Z" fill="#C6AC6C"/>
<path d="M15.601 0.967285L22.1998 1.52267L21.6618 11.0348L14.5249 7.65879L15.601 0.967285Z" fill="#C6AC6C"/>
<path d="M24.1621 10.6895L30.3253 8.5144L32.9999 14.7259L24.6565 18.7765L24.1621 10.6895Z" fill="#C6AC6C"/>
<path d="M19.9033 25.1529L26.4298 20.6223L31.3714 25.0633L27.4472 30.5842L19.9033 25.1529Z" fill="#C6AC6C"/>
<path d="M11.3657 24.3633L18.652 27.3563L17.9157 34.039L11.2607 33.8842L11.3657 24.3633Z" fill="#C6AC6C"/>
</svg>
